# xmcd CD database file
#
# Track frame offsets:
#	150
#	14245
#	27747
#	37776
#	51896
#	61240
#	74638
#	87995
#	104630
#	113714
#
# Disc length: 1653 seconds
#
# Revision: 0
# Processed by: cddbd v1.5PL3 Copyright (c) Steve Scherf et al.
# Submitted via: CDex 1.51
#
DISCID=8f06730a
DTITLE=Fazendeiro - O Bicho Pega
DYEAR=1991
DGENRE=Country
TTITLE0=Fazendeiro - O Bicho Pega (batidão)
TTITLE1=Fazendeiro - Que Saudade (balanço)
TTITLE2=Fazendeiro - Cobertor Xadrez (guarânia)
TTITLE3=Fazendeiro - Vê Se Me Esquece (balanço)
TTITLE4=Fazendeiro - Saudade, Pra Quê Saudade (chamamé)
TTITLE5=Fazendeiro - Quero Gozar com Você (canção rancheira)
TTITLE6=Fazendeiro - Beber é o Melhor Remédio (guarânia)
TTITLE7=Fazendeiro - Não Consigo lhe Ofender (balanço)
TTITLE8=Fazendeiro - Mina de Desejo (polca)
TTITLE9=Fazendeiro - Bichin de Pêlo (xote)
EXTD=YEAR: 1991
EXTT0=
EXTT1=
EXTT2=
EXTT3=
EXTT4=
EXTT5=
EXTT6=
EXTT7=
EXTT8=
EXTT9=
PLAYORDER=
